<svg width="241" height="83" viewBox="0 0 241 83" fill="none" xmlns="http://www.w3.org/2000/svg">
<path d="M130.676 69.0932C127.945 66.7435 125.31 64.2349 122.77 61.5676C120.293 58.8368 117.975 56.0425 115.816 53.1847C113.72 50.3269 111.783 47.4373 110.005 44.516C108.29 41.5311 106.829 38.6098 105.623 35.752C103.464 38.1018 101.304 40.4833 99.145 42.8965C97.0493 45.2463 95.1758 47.6278 93.5246 50.0411C91.8735 52.3909 90.5398 54.7724 89.5237 57.1856C88.4441 59.5354 87.9043 61.8852 87.9043 64.2349C87.9043 67.0292 88.3806 69.4425 89.3332 71.4747C90.2223 73.4435 91.4289 75.0629 92.9531 76.333C94.4772 77.6032 96.2237 78.524 98.1924 79.0956C100.161 79.6672 102.193 79.9529 104.289 79.9529C108.481 79.9529 112.926 78.9686 117.626 76.9999C122.325 75.0311 126.675 72.3956 130.676 69.0932ZM118.864 12.6036C118.864 10.3809 118.356 8.79321 117.34 7.84061C116.387 6.8245 115.339 6.31644 114.196 6.31644C113.244 6.31644 112.227 6.63397 111.148 7.26905C110.132 7.90412 109.179 8.82497 108.29 10.0316C107.464 11.1747 106.766 12.5719 106.194 14.2231C105.623 15.8743 105.337 17.6842 105.337 19.6529C105.337 23.2728 106.004 27.115 107.337 31.1795C108.925 29.5283 110.418 27.9089 111.815 26.3212C113.212 24.7335 114.418 23.1776 115.435 21.6534C116.514 20.0657 117.34 18.5416 117.911 17.0809C118.546 15.5567 118.864 14.0643 118.864 12.6036ZM155.539 82.1439C155.539 82.3345 155.412 82.525 155.158 82.7155C154.904 82.906 154.523 83.0013 154.015 83.0013C150.205 81.7947 146.458 80.1117 142.774 77.9525C139.091 75.7297 135.503 73.1577 132.01 70.2364C129.597 72.0781 127.088 73.761 124.484 75.2852C121.881 76.8093 119.213 78.1112 116.482 79.1909C113.815 80.2705 111.116 81.0961 108.385 81.6676C105.718 82.2392 103.146 82.525 100.669 82.525C98.2559 82.525 95.9697 82.1757 93.8104 81.4771C91.6512 80.842 89.7777 79.8577 88.19 78.524C86.6024 77.1269 85.364 75.4122 84.4749 73.38C83.5223 71.3477 83.046 68.9662 83.046 66.2354C83.046 63.3141 83.7128 60.4563 85.0464 57.6619C86.3801 54.8041 88.0948 52.0098 90.1905 49.279C92.2862 46.5482 94.6043 43.8809 97.1445 41.2771C99.7483 38.6733 102.289 36.133 104.765 33.6563C102.924 28.7027 102.003 24.2254 102.003 20.2245C102.003 17.8747 102.416 15.7155 103.241 13.7468C104.13 11.778 105.242 10.0951 106.575 8.69795C107.909 7.3008 109.37 6.22118 110.957 5.45909C112.609 4.6335 114.164 4.2207 115.625 4.2207C117.34 4.2207 118.896 4.79227 120.293 5.9354C121.69 7.01501 122.389 8.82497 122.389 11.3653C122.389 12.9529 121.976 14.6041 121.15 16.3188C120.388 18.0335 119.34 19.8117 118.007 21.6534C116.736 23.4316 115.212 25.3051 113.434 27.2738C111.719 29.179 109.909 31.1477 108.004 33.1799C110.1 38.9591 113.212 44.8335 117.34 50.8032C121.531 56.7093 126.612 62.2345 132.582 67.3785C135.82 64.4572 138.424 61.2501 140.393 57.7572C142.362 54.2643 143.346 50.6127 143.346 46.8022C143.346 45.5321 143.155 44.2619 142.774 42.9918C142.457 41.6582 141.79 40.261 140.774 38.8003C140.774 38.6733 140.964 38.5463 141.346 38.4193C141.727 38.2288 142.076 38.1335 142.393 38.1335C143.282 38.1335 143.981 38.451 144.489 39.0861C145.061 39.6577 145.473 40.3563 145.727 41.1818C146.045 42.0074 146.236 42.8648 146.299 43.7539C146.426 44.5795 146.49 45.2463 146.49 45.7544C146.49 49.9458 145.315 54.0103 142.965 57.9477C140.679 61.8217 137.694 65.3781 134.01 68.6169C140.171 73.888 147.125 78.1748 154.873 81.4771C155.317 81.7311 155.539 81.9534 155.539 82.1439Z" fill="#D0D0D0"/>
<path d="M19.24 48.1283C19.24 46.1443 19.112 44.4963 18.856 43.1843C18.632 41.8723 18.312 41.2163 17.896 41.2163C17.64 41.2163 17.4 41.4083 17.176 41.7923C16.952 42.1443 16.76 42.6563 16.6 43.3283C16.472 43.9683 16.36 44.7363 16.264 45.6323C16.2 46.4963 16.168 47.4403 16.168 48.4643C16.168 50.2883 16.296 52.2563 16.552 54.3683C16.808 56.4483 17.256 58.4643 17.896 60.4163C18.344 58.3683 18.68 56.2723 18.904 54.1283C19.128 51.9523 19.24 49.9523 19.24 48.1283ZM39.352 26.3363C39.352 26.4963 39.288 26.6243 39.16 26.7203C39.032 26.8163 38.872 26.9283 38.68 27.0563C37.72 27.6323 36.936 28.4323 36.328 29.4563C35.72 30.4803 35.224 31.6003 34.84 32.8163C34.488 34.0323 34.248 35.2803 34.12 36.5603C33.992 37.8083 33.928 38.9603 33.928 40.0163C33.928 40.7523 33.96 41.6643 34.024 42.7523C34.12 43.8083 34.216 44.9763 34.312 46.2563C34.44 47.5363 34.536 48.8963 34.6 50.3363C34.696 51.7443 34.744 53.1843 34.744 54.6563C34.744 56.7363 34.616 58.7523 34.36 60.7043C34.136 62.6563 33.672 64.4003 32.968 65.9363C32.296 67.4723 31.352 68.7043 30.136 69.6323C28.92 70.5603 27.336 71.0243 25.384 71.0243C24.488 71.0243 23.64 70.8483 22.84 70.4963C22.072 70.1763 21.352 69.7123 20.68 69.1043C20.04 68.4963 19.448 67.7923 18.904 66.9923C18.392 66.1923 17.928 65.3123 17.512 64.3523C17.096 65.4723 16.6 66.5123 16.024 67.4723C15.48 68.4323 14.872 69.2643 14.2 69.9683C13.528 70.6723 12.792 71.2163 11.992 71.6003C11.192 71.9843 10.344 72.1763 9.44799 72.1763C8.07199 72.1763 6.90399 71.8243 5.94399 71.1203C5.01599 70.4163 4.24799 69.4883 3.63999 68.3363C3.03199 67.2163 2.55199 65.9363 2.19999 64.4963C1.87999 63.0243 1.63999 61.5363 1.47999 60.0323C1.31999 58.4963 1.20799 57.0083 1.14399 55.5683C1.11199 54.0963 1.07999 52.8003 1.04799 51.6803C0.983991 49.6643 1.01599 47.7603 1.14399 45.9683C1.30399 44.1443 1.47999 42.5123 1.67199 41.0723C1.86399 39.6003 2.05599 38.3363 2.24799 37.2803C2.43999 36.2243 2.56799 35.4403 2.63199 34.9283C2.66399 34.7363 2.85599 34.6083 3.20799 34.5443C3.59199 34.4803 3.92799 34.4483 4.21599 34.4483C4.43999 34.4483 4.63199 34.4803 4.79199 34.5443C4.95199 34.5763 5.03199 34.6723 5.03199 34.8323C5.03199 35.0243 4.95199 35.3603 4.79199 35.8403C4.63199 36.2883 4.39199 37.1523 4.07199 38.4323C3.94399 39.0083 3.79999 39.8403 3.63999 40.9283C3.51199 41.9843 3.38399 43.1843 3.25599 44.5283C3.15999 45.8723 3.07999 47.3123 3.01599 48.8483C2.95199 50.3523 2.91999 51.8243 2.91999 53.2643C2.91999 54.3843 2.96799 55.6163 3.06399 56.9603C3.15999 58.2723 3.31999 59.5843 3.54399 60.8963C3.76799 62.1763 4.07199 63.4243 4.45599 64.6403C4.83999 65.8563 5.30399 66.9283 5.84799 67.8563C6.42399 68.7843 7.09599 69.5203 7.86399 70.0643C8.63199 70.6403 9.52799 70.9283 10.552 70.9283C11.32 70.9283 12.024 70.7363 12.664 70.3523C13.304 69.9683 13.896 69.4243 14.44 68.7203C14.984 68.0483 15.464 67.2483 15.88 66.3203C16.328 65.3923 16.728 64.3843 17.08 63.2963C16.344 61.2803 15.8 59.1363 15.448 56.8643C15.096 54.5923 14.92 52.4963 14.92 50.5763C14.92 49.1683 14.968 47.7763 15.064 46.4003C15.192 45.0243 15.368 43.7923 15.592 42.7043C15.816 41.6163 16.104 40.7363 16.456 40.0643C16.808 39.3923 17.224 39.0563 17.704 39.0563C18.088 39.0563 18.424 39.2963 18.712 39.7763C19.032 40.2563 19.288 40.9123 19.48 41.7443C19.704 42.5763 19.864 43.5683 19.96 44.7203C20.088 45.8403 20.152 47.0563 20.152 48.3683C20.152 50.4803 20.008 52.7043 19.72 55.0403C19.432 57.3443 18.984 59.6003 18.376 61.8083C18.792 62.9283 19.272 63.9683 19.816 64.9283C20.36 65.8563 20.968 66.6723 21.64 67.3763C22.344 68.0803 23.112 68.6243 23.944 69.0083C24.808 69.4243 25.752 69.6323 26.776 69.6323C28.184 69.6323 29.336 69.2803 30.232 68.5763C31.128 67.9043 31.832 66.9763 32.344 65.7923C32.856 64.5763 33.208 63.1843 33.4 61.6163C33.592 60.0163 33.688 58.3043 33.688 56.4803C33.688 54.8483 33.624 53.1683 33.496 51.4403C33.4 49.7123 33.288 48.0003 33.16 46.3043C33.032 44.5763 32.904 42.9123 32.776 41.3123C32.68 39.6803 32.632 38.1763 32.632 36.8003C32.632 35.8083 32.776 34.6563 33.064 33.3443C33.384 32.0323 33.8 30.8003 34.312 29.6483C34.856 28.4643 35.464 27.4723 36.136 26.6723C36.84 25.8403 37.576 25.4243 38.344 25.4243C38.568 25.4243 38.792 25.5363 39.016 25.7603C39.24 25.9523 39.352 26.1443 39.352 26.3363Z" fill="black"/>
<path d="M54.3396 58.2083C54.3396 57.7283 54.2596 57.3443 54.0996 57.0563C53.9396 56.7363 53.6836 56.5763 53.3316 56.5763C52.7876 56.5763 52.3716 56.8483 52.0836 57.3923C51.7956 57.9043 51.6676 58.5603 51.6996 59.3603C51.7956 61.0563 52.0996 62.4803 52.6116 63.6323C53.1556 62.8963 53.5716 62.0643 53.8596 61.1363C54.1796 60.2083 54.3396 59.2323 54.3396 58.2083ZM67.2996 58.1603C67.0756 58.6403 66.8356 59.1363 66.5796 59.6483C66.3236 60.1283 66.0356 60.6083 65.7156 61.0883C64.0836 63.5203 62.4356 65.3283 60.7716 66.5123C59.1076 67.6963 57.5556 68.2883 56.1156 68.2883C54.2916 68.2883 52.8996 67.4243 51.9396 65.6963C50.8196 66.8163 49.5556 67.6643 48.1476 68.2403C46.7716 68.8163 45.4116 69.1043 44.0676 69.1043C43.2676 69.1043 42.4996 68.9923 41.7636 68.7683C41.0596 68.5443 40.4516 68.2083 39.9396 67.7603C39.3956 67.2803 38.9636 66.6883 38.6436 65.9843C38.3236 65.2483 38.1636 64.4003 38.1636 63.4403C38.1636 62.2883 38.4356 61.1203 38.9796 59.9363C39.4916 58.7203 40.2116 57.6323 41.1396 56.6723C42.0996 55.6803 43.2196 54.8643 44.4996 54.2243C45.7796 53.5843 47.1716 53.2643 48.6756 53.2643C49.8916 53.2643 50.8356 53.4403 51.5076 53.7923C52.1796 54.1123 52.5156 54.4163 52.5156 54.7043C52.5156 54.8323 52.4516 54.9283 52.3236 54.9923C52.1956 55.0563 52.0836 55.0883 51.9876 55.0883C51.9556 55.0563 51.9236 55.0403 51.8916 55.0403H51.8436C51.4596 54.6883 51.0276 54.4163 50.5476 54.2243C50.0676 54.0003 49.3636 53.8883 48.4356 53.8883C47.1876 53.8883 46.0516 54.1603 45.0276 54.7043C44.0356 55.2163 43.1876 55.9043 42.4836 56.7683C41.7796 57.6003 41.2356 58.5283 40.8516 59.5523C40.4676 60.5763 40.2756 61.5843 40.2756 62.5763C40.2756 64.4963 40.7236 65.8883 41.6196 66.7523C42.5156 67.6163 43.6356 68.0483 44.9796 68.0483C46.0676 68.0483 47.2036 67.7763 48.3876 67.2323C49.5716 66.6883 50.6276 65.9203 51.5556 64.9283C51.0436 63.7763 50.7876 62.2723 50.7876 60.4163C50.7876 59.2003 51.0116 58.1443 51.4596 57.2483C51.9076 56.3523 52.5476 55.9043 53.3796 55.9043C54.5316 55.9043 55.1076 56.5763 55.1076 57.9203C55.1076 59.2643 54.9156 60.4803 54.5316 61.5683C54.1476 62.6243 53.6356 63.5843 52.9956 64.4483C53.8916 66.1123 55.1396 66.9443 56.7396 66.9443C57.9556 66.9443 59.2516 66.4323 60.6276 65.4083C62.0356 64.3843 63.4116 62.8963 64.7556 60.9443C65.0756 60.4643 65.3636 59.9683 65.6196 59.4563C65.8756 58.9443 66.1316 58.4323 66.3876 57.9203L67.2996 58.1603Z" fill="black"/>
<path d="M73.9667 36.7043C73.9667 34.8803 73.6627 33.4243 73.0547 32.3363C72.4787 31.2163 71.5027 30.6563 70.1267 30.6563C69.6467 30.6563 69.1987 30.8163 68.7827 31.1363C68.3987 31.4243 68.0627 31.8243 67.7747 32.3363C67.4867 32.8483 67.2627 33.4403 67.1027 34.1123C66.9427 34.7843 66.8627 35.5043 66.8627 36.2723C66.8627 38.3843 66.8787 40.3043 66.9107 42.0323C66.9427 43.7603 66.9747 45.3923 67.0067 46.9283C67.0707 48.4643 67.1347 49.9523 67.1987 51.3923C67.2627 52.8323 67.3267 54.3043 67.3907 55.8083C68.3187 54.5603 69.1827 53.1363 69.9827 51.5363C70.7827 49.9043 71.4707 48.2403 72.0467 46.5443C72.6547 44.8163 73.1187 43.1043 73.4387 41.4083C73.7907 39.7123 73.9667 38.1443 73.9667 36.7043ZM91.3427 58.1603C91.1187 58.6403 90.8787 59.1363 90.6227 59.6483C90.3987 60.1603 90.1107 60.6403 89.7587 61.0883C87.9987 63.5843 85.9987 65.5523 83.7587 66.9923C81.5187 68.4003 79.2947 69.1043 77.0867 69.1043C75.7107 69.1043 74.3987 68.7843 73.1507 68.1443C71.9027 67.5363 70.7987 66.5443 69.8387 65.1683C69.7107 65.0083 69.6467 64.8643 69.6467 64.7363C69.6467 64.4483 69.8387 64.3043 70.2227 64.3043C70.2547 64.3043 70.3667 64.3363 70.5587 64.4003C70.8147 64.4003 71.1027 64.4963 71.4227 64.6883C71.7747 64.8483 72.2707 64.9283 72.9107 64.9283C73.9027 64.9283 74.8307 64.7523 75.6947 64.4003C76.5587 64.0483 77.2947 63.6003 77.9027 63.0563C78.5427 62.4803 79.0387 61.8403 79.3907 61.1363C79.7427 60.4003 79.9187 59.6483 79.9187 58.8803C79.9187 57.9203 79.6627 57.0883 79.1507 56.3843C78.6707 55.6803 77.8387 55.3283 76.6547 55.3283C75.4387 55.3283 74.3187 55.7603 73.2947 56.6243C72.2707 57.4563 71.3427 58.4803 70.5107 59.6963C69.7107 60.8803 69.0227 62.1443 68.4467 63.4883C67.8707 64.8003 67.4387 65.9523 67.1507 66.9443C66.9907 67.4883 66.8467 67.8243 66.7187 67.9523C66.5907 68.0803 66.4467 68.1443 66.2867 68.1443C65.9347 68.1443 65.7747 67.8083 65.8067 67.1363C65.8067 66.8483 65.8227 66.4963 65.8547 66.0803C65.8867 65.6643 65.9187 65.2163 65.9507 64.7363C65.9507 64.2563 65.9667 63.7763 65.9987 63.2963C66.0307 62.7843 66.0467 62.3203 66.0467 61.9043C66.0467 60.4643 66.0147 58.8163 65.9507 56.9603C65.8867 55.0723 65.8067 53.1363 65.7107 51.1523C65.6147 49.1363 65.5347 47.1363 65.4707 45.1523C65.4067 43.1683 65.3747 41.3443 65.3747 39.6803C65.3747 38.3683 65.4707 37.1043 65.6627 35.8883C65.8547 34.6403 66.1587 33.5523 66.5747 32.6243C66.9907 31.6643 67.5187 30.9123 68.1587 30.3683C68.7987 29.7923 69.5507 29.5043 70.4147 29.5043C71.3107 29.5043 72.0627 29.6643 72.6707 29.9843C73.3107 30.2723 73.8227 30.7043 74.2067 31.2803C74.5907 31.8243 74.8627 32.4963 75.0227 33.2963C75.2147 34.0643 75.3107 34.9123 75.3107 35.8403C75.3107 37.4403 75.0867 39.2003 74.6387 41.1203C74.1907 43.0083 73.5987 44.9123 72.8627 46.8323C72.1267 48.7523 71.2787 50.6083 70.3187 52.4003C69.3907 54.1603 68.4307 55.6963 67.4387 57.0083C67.5027 57.9683 67.5347 58.9603 67.5347 59.9843C67.5667 61.0083 67.6147 62.0963 67.6787 63.2483C68.4787 61.5203 69.3587 60.0323 70.3187 58.7843C70.7347 58.2403 71.1987 57.7123 71.7107 57.2003C72.2547 56.6563 72.8147 56.1763 73.3907 55.7603C73.9987 55.3443 74.6387 55.0083 75.3107 54.7523C76.0147 54.4963 76.7507 54.3683 77.5187 54.3683C78.7347 54.3683 79.7907 54.6723 80.6867 55.2803C81.5827 55.8883 82.0307 56.8643 82.0307 58.2083C82.0307 59.4883 81.7107 60.5763 81.0707 61.4723C80.4627 62.3683 79.6947 63.1203 78.7667 63.7283C77.8387 64.3043 76.8467 64.7363 75.7907 65.0243C74.7347 65.3123 73.7747 65.4883 72.9107 65.5523C72.8467 65.5523 72.8147 65.5683 72.8147 65.6003C72.8147 65.6643 72.8627 65.7603 72.9587 65.8883C73.5987 66.6243 74.3187 67.1523 75.1187 67.4723C75.9187 67.7923 76.7507 67.9523 77.6147 67.9523C78.6707 67.9523 79.7427 67.7603 80.8307 67.3763C81.9187 66.9603 82.9587 66.4323 83.9507 65.7923C84.9427 65.1203 85.8547 64.3683 86.6867 63.5363C87.5507 62.6723 88.2547 61.8083 88.7987 60.9443C89.1187 60.4643 89.4067 59.9683 89.6627 59.4563C89.9187 58.9443 90.1747 58.4323 90.4307 57.9203L91.3427 58.1603Z" fill="black"/>
<path d="M98.1096 55.1843C98.1096 54.3203 97.8856 53.6163 97.4376 53.0723C97.0216 52.4963 96.3336 52.2083 95.3736 52.2083C94.8616 52.2083 94.3976 52.3683 93.9816 52.6883C93.5656 53.0083 93.2136 53.4403 92.9256 53.9843C92.6376 54.4963 92.4136 55.1043 92.2536 55.8083C92.0936 56.5123 92.0136 57.2483 92.0136 58.0163C92.0136 59.2323 92.1416 60.3203 92.3976 61.2803C92.6856 62.2083 93.0856 63.0243 93.5976 63.7283C94.2696 63.1843 94.8776 62.5603 95.4216 61.8563C95.9656 61.1523 96.4296 60.4163 96.8136 59.6483C97.2296 58.8803 97.5496 58.1123 97.7736 57.3443C97.9976 56.5763 98.1096 55.8563 98.1096 55.1843ZM110.254 58.1603C110.03 58.6403 109.79 59.1363 109.534 59.6483C109.31 60.1283 109.022 60.6083 108.67 61.0883C107.102 63.3283 105.31 65.0243 103.294 66.1763C101.31 67.2963 99.4056 67.8563 97.5816 67.8563C96.5576 67.8563 95.5976 67.6803 94.7016 67.3283C93.8376 66.9763 93.0856 66.4483 92.4456 65.7443C91.8056 65.0403 91.2936 64.1603 90.9096 63.1043C90.5256 62.0483 90.3336 60.8003 90.3336 59.3603C90.3336 58.4003 90.4776 57.4403 90.7656 56.4803C91.0536 55.5203 91.4376 54.6563 91.9176 53.8883C92.4296 53.1203 93.0056 52.4963 93.6456 52.0163C94.3176 51.5363 95.0216 51.2963 95.7576 51.2963C96.9416 51.2963 97.8056 51.6483 98.3496 52.3523C98.8936 53.0243 99.1656 53.8883 99.1656 54.9443C99.1656 56.3843 98.7176 57.9523 97.8216 59.6483C96.9576 61.3123 95.7096 62.8643 94.0776 64.3043C95.2936 65.6803 96.8616 66.3683 98.7816 66.3683C100.222 66.3683 101.726 65.9363 103.294 65.0723C104.862 64.1763 106.334 62.8003 107.71 60.9443C108.062 60.4963 108.35 60.0163 108.574 59.5043C108.83 58.9603 109.086 58.4323 109.342 57.9203L110.254 58.1603Z" fill="black"/>
<path d="M151.839 46.0643C150.655 46.0643 149.519 46.1923 148.431 46.4483C147.375 46.7043 146.431 47.0083 145.599 47.3603C144.799 47.7123 144.143 48.0803 143.631 48.4643C143.151 48.8483 142.911 49.1843 142.911 49.4723C142.911 49.8563 143.359 50.0483 144.255 50.0483C145.791 50.0483 147.247 49.6803 148.623 48.9443C150.031 48.2083 151.295 47.2483 152.415 46.0643H151.839ZM165.807 53.2643C165.807 54.8323 165.359 56.5283 164.463 58.3523C163.599 60.1763 162.399 61.9843 160.863 63.7763C159.327 65.5683 157.503 67.2963 155.391 68.9603C153.279 70.6243 151.007 72.0963 148.575 73.3763C146.143 74.6563 143.583 75.6643 140.895 76.4003C138.207 77.1683 135.519 77.5523 132.831 77.5523C132.383 77.5523 131.887 77.5363 131.343 77.5043C130.831 77.4723 130.351 77.3923 129.903 77.2643C129.455 77.1683 129.071 76.9923 128.751 76.7363C128.431 76.5123 128.271 76.1923 128.271 75.7763C128.271 75.2003 128.559 74.6403 129.135 74.0963C129.711 73.5843 130.447 73.1043 131.343 72.6563C132.239 72.2083 133.215 71.8083 134.271 71.4563C135.327 71.1043 136.335 70.8003 137.295 70.5443C138.287 70.2883 139.151 70.0803 139.887 69.9203C140.623 69.7923 141.119 69.7283 141.375 69.7283C141.567 69.7283 141.711 69.7763 141.807 69.8723C141.903 69.9683 141.951 70.0643 141.951 70.1603C141.951 70.3203 141.871 70.4003 141.711 70.4003H141.087C140.255 70.4003 139.199 70.5603 137.919 70.8803C136.639 71.2003 135.391 71.6003 134.175 72.0803C132.959 72.5603 131.919 73.0883 131.055 73.6643C130.191 74.2723 129.759 74.8323 129.759 75.3443C129.759 75.6963 129.871 75.9683 130.095 76.1603C130.351 76.3843 130.655 76.5603 131.007 76.6883C131.359 76.8163 131.727 76.8963 132.111 76.9283C132.495 76.9923 132.831 77.0243 133.119 77.0243C135.391 77.0243 137.711 76.6403 140.079 75.8723C142.479 75.1043 144.799 74.0803 147.039 72.8003C149.311 71.5523 151.439 70.0963 153.423 68.4323C155.439 66.8003 157.199 65.1043 158.703 63.3443C160.207 61.5523 161.391 59.7763 162.255 58.0163C163.119 56.2243 163.551 54.5603 163.551 53.0243C163.551 51.1363 162.767 49.5683 161.199 48.3203C159.663 47.0403 157.119 46.3043 153.567 46.1123C152.127 47.4563 150.543 48.5443 148.815 49.3763C147.119 50.2083 145.391 50.6243 143.631 50.6243C142.383 50.6243 141.759 50.3203 141.759 49.7123C141.759 49.3283 142.015 48.8963 142.527 48.4163C143.071 47.9043 143.807 47.4243 144.735 46.9763C145.695 46.5283 146.831 46.1603 148.143 45.8723C149.455 45.5523 150.895 45.3923 152.463 45.3923H153.039C154.095 44.1443 154.943 42.7843 155.583 41.3123C156.223 39.8083 156.543 38.3363 156.543 36.8963C156.543 35.9363 156.367 35.0243 156.015 34.1603C155.695 33.2643 155.151 32.4963 154.383 31.8563C153.647 31.2163 152.671 30.7043 151.455 30.3203C150.271 29.9363 148.831 29.7443 147.135 29.7443C145.983 29.7443 144.383 29.9043 142.335 30.2243C140.319 30.5443 138.127 31.0403 135.759 31.7123C133.423 32.3523 131.039 33.1683 128.607 34.1603C126.175 35.1523 123.967 36.3043 121.983 37.6163C119.999 38.9283 118.383 40.4163 117.135 42.0803C115.887 43.7443 115.263 45.5843 115.263 47.6003C115.263 47.8563 115.215 48.0803 115.119 48.2723C115.023 48.4323 114.927 48.5123 114.831 48.5123C114.703 48.5123 114.607 48.3843 114.543 48.1283C114.447 47.8403 114.399 47.3763 114.399 46.7363C114.687 44.6563 115.535 42.7683 116.943 41.0723C118.351 39.3763 120.095 37.8723 122.175 36.5603C124.223 35.2163 126.479 34.0643 128.943 33.1043C131.407 32.1443 133.839 31.3603 136.239 30.7523C138.671 30.1123 140.927 29.6483 143.007 29.3603C145.119 29.0403 146.847 28.8803 148.191 28.8803C150.143 28.8803 151.791 29.0723 153.135 29.4563C154.511 29.8083 155.631 30.3043 156.495 30.9443C157.359 31.5523 157.983 32.2883 158.367 33.1523C158.751 34.0163 158.943 34.9283 158.943 35.8883C158.943 37.4563 158.511 39.0883 157.647 40.7843C156.815 42.4483 155.679 44.0003 154.239 45.4403C156.287 45.5363 158.047 45.8083 159.519 46.2563C160.991 46.6723 162.191 47.2323 163.119 47.9363C164.047 48.6083 164.719 49.4083 165.135 50.3363C165.583 51.2323 165.807 52.2083 165.807 53.2643ZM140.367 65.8883C140.367 66.3363 140.335 66.6563 140.271 66.8483C140.207 67.0403 140.031 67.1363 139.743 67.1363C139.103 67.2003 138.783 66.5603 138.783 65.2163C138.751 60.8003 138.703 56.7683 138.639 53.1203C138.607 49.4723 138.559 46.3203 138.495 43.6643C138.463 40.9763 138.431 38.8483 138.399 37.2803C138.367 35.7123 138.351 34.8163 138.351 34.5923C138.351 34.3363 138.431 34.1603 138.591 34.0643C138.751 33.9683 138.943 33.8883 139.167 33.8243C139.423 33.8243 139.615 33.9043 139.743 34.0643C139.903 34.2243 139.983 34.4163 139.983 34.6403C139.983 37.2003 139.999 39.8403 140.031 42.5603C140.063 45.2483 140.095 47.9363 140.127 50.6243C140.191 53.3123 140.239 55.9523 140.271 58.5443C140.335 61.1363 140.367 63.5843 140.367 65.8883Z" fill="black"/>
<path d="M184.465 58.2083C184.465 57.7283 184.385 57.3443 184.225 57.0563C184.065 56.7363 183.809 56.5763 183.457 56.5763C182.913 56.5763 182.497 56.8483 182.209 57.3923C181.921 57.9043 181.793 58.5603 181.825 59.3603C181.921 61.0563 182.225 62.4803 182.737 63.6323C183.281 62.8963 183.697 62.0643 183.985 61.1363C184.305 60.2083 184.465 59.2323 184.465 58.2083ZM197.425 58.1603C197.201 58.6403 196.961 59.1363 196.705 59.6483C196.449 60.1283 196.161 60.6083 195.841 61.0883C194.209 63.5203 192.561 65.3283 190.897 66.5123C189.233 67.6963 187.681 68.2883 186.241 68.2883C184.417 68.2883 183.025 67.4243 182.065 65.6963C180.945 66.8163 179.681 67.6643 178.273 68.2403C176.897 68.8163 175.537 69.1043 174.193 69.1043C173.393 69.1043 172.625 68.9923 171.889 68.7683C171.185 68.5443 170.577 68.2083 170.065 67.7603C169.521 67.2803 169.089 66.6883 168.769 65.9843C168.449 65.2483 168.289 64.4003 168.289 63.4403C168.289 62.2883 168.561 61.1203 169.105 59.9363C169.617 58.7203 170.337 57.6323 171.265 56.6723C172.225 55.6803 173.345 54.8643 174.625 54.2243C175.905 53.5843 177.297 53.2643 178.801 53.2643C180.017 53.2643 180.961 53.4403 181.633 53.7923C182.305 54.1123 182.641 54.4163 182.641 54.7043C182.641 54.8323 182.577 54.9283 182.449 54.9923C182.321 55.0563 182.209 55.0883 182.113 55.0883C182.081 55.0563 182.049 55.0403 182.017 55.0403H181.969C181.585 54.6883 181.153 54.4163 180.673 54.2243C180.193 54.0003 179.489 53.8883 178.561 53.8883C177.313 53.8883 176.177 54.1603 175.153 54.7043C174.161 55.2163 173.313 55.9043 172.609 56.7683C171.905 57.6003 171.361 58.5283 170.977 59.5523C170.593 60.5763 170.401 61.5843 170.401 62.5763C170.401 64.4963 170.849 65.8883 171.745 66.7523C172.641 67.6163 173.761 68.0483 175.105 68.0483C176.193 68.0483 177.329 67.7763 178.513 67.2323C179.697 66.6883 180.753 65.9203 181.681 64.9283C181.169 63.7763 180.913 62.2723 180.913 60.4163C180.913 59.2003 181.137 58.1443 181.585 57.2483C182.033 56.3523 182.673 55.9043 183.505 55.9043C184.657 55.9043 185.233 56.5763 185.233 57.9203C185.233 59.2643 185.041 60.4803 184.657 61.5683C184.273 62.6243 183.761 63.5843 183.121 64.4483C184.017 66.1123 185.265 66.9443 186.865 66.9443C188.081 66.9443 189.377 66.4323 190.753 65.4083C192.161 64.3843 193.537 62.8963 194.881 60.9443C195.201 60.4643 195.489 59.9683 195.745 59.4563C196.001 58.9443 196.257 58.4323 196.513 57.9203L197.425 58.1603Z" fill="black"/>
<path d="M204.092 36.7043C204.092 34.8803 203.788 33.4243 203.18 32.3363C202.604 31.2163 201.628 30.6563 200.252 30.6563C199.772 30.6563 199.324 30.8163 198.908 31.1363C198.524 31.4243 198.188 31.8243 197.9 32.3363C197.612 32.8483 197.388 33.4403 197.228 34.1123C197.068 34.7843 196.988 35.5043 196.988 36.2723C196.988 38.3843 197.004 40.3043 197.036 42.0323C197.068 43.7603 197.1 45.3923 197.132 46.9283C197.196 48.4643 197.26 49.9523 197.324 51.3923C197.388 52.8323 197.452 54.3043 197.516 55.8083C198.444 54.5603 199.308 53.1363 200.108 51.5363C200.908 49.9043 201.596 48.2403 202.172 46.5443C202.78 44.8163 203.244 43.1043 203.564 41.4083C203.916 39.7123 204.092 38.1443 204.092 36.7043ZM221.468 58.1603C221.244 58.6403 221.004 59.1363 220.748 59.6483C220.524 60.1603 220.236 60.6403 219.884 61.0883C218.124 63.5843 216.124 65.5523 213.884 66.9923C211.644 68.4003 209.42 69.1043 207.212 69.1043C205.836 69.1043 204.524 68.7843 203.276 68.1443C202.028 67.5363 200.924 66.5443 199.964 65.1683C199.836 65.0083 199.772 64.8643 199.772 64.7363C199.772 64.4483 199.964 64.3043 200.348 64.3043C200.38 64.3043 200.492 64.3363 200.684 64.4003C200.94 64.4003 201.228 64.4963 201.548 64.6883C201.9 64.8483 202.396 64.9283 203.036 64.9283C204.028 64.9283 204.956 64.7523 205.82 64.4003C206.684 64.0483 207.42 63.6003 208.028 63.0563C208.668 62.4803 209.164 61.8403 209.516 61.1363C209.868 60.4003 210.044 59.6483 210.044 58.8803C210.044 57.9203 209.788 57.0883 209.276 56.3843C208.796 55.6803 207.964 55.3283 206.78 55.3283C205.564 55.3283 204.444 55.7603 203.42 56.6243C202.396 57.4563 201.468 58.4803 200.636 59.6963C199.836 60.8803 199.148 62.1443 198.572 63.4883C197.996 64.8003 197.564 65.9523 197.276 66.9443C197.116 67.4883 196.972 67.8243 196.844 67.9523C196.716 68.0803 196.572 68.1443 196.412 68.1443C196.06 68.1443 195.9 67.8083 195.932 67.1363C195.932 66.8483 195.948 66.4963 195.98 66.0803C196.012 65.6643 196.044 65.2163 196.076 64.7363C196.076 64.2563 196.092 63.7763 196.124 63.2963C196.156 62.7843 196.172 62.3203 196.172 61.9043C196.172 60.4643 196.14 58.8163 196.076 56.9603C196.012 55.0723 195.932 53.1363 195.836 51.1523C195.74 49.1363 195.66 47.1363 195.596 45.1523C195.532 43.1683 195.5 41.3443 195.5 39.6803C195.5 38.3683 195.596 37.1043 195.788 35.8883C195.98 34.6403 196.284 33.5523 196.7 32.6243C197.116 31.6643 197.644 30.9123 198.284 30.3683C198.924 29.7923 199.676 29.5043 200.54 29.5043C201.436 29.5043 202.188 29.6643 202.796 29.9843C203.436 30.2723 203.948 30.7043 204.332 31.2803C204.716 31.8243 204.988 32.4963 205.148 33.2963C205.34 34.0643 205.436 34.9123 205.436 35.8403C205.436 37.4403 205.212 39.2003 204.764 41.1203C204.316 43.0083 203.724 44.9123 202.988 46.8323C202.252 48.7523 201.404 50.6083 200.444 52.4003C199.516 54.1603 198.556 55.6963 197.564 57.0083C197.628 57.9683 197.66 58.9603 197.66 59.9843C197.692 61.0083 197.74 62.0963 197.804 63.2483C198.604 61.5203 199.484 60.0323 200.444 58.7843C200.86 58.2403 201.324 57.7123 201.836 57.2003C202.38 56.6563 202.94 56.1763 203.516 55.7603C204.124 55.3443 204.764 55.0083 205.436 54.7523C206.14 54.4963 206.876 54.3683 207.644 54.3683C208.86 54.3683 209.916 54.6723 210.812 55.2803C211.708 55.8883 212.156 56.8643 212.156 58.2083C212.156 59.4883 211.836 60.5763 211.196 61.4723C210.588 62.3683 209.82 63.1203 208.892 63.7283C207.964 64.3043 206.972 64.7363 205.916 65.0243C204.86 65.3123 203.9 65.4883 203.036 65.5523C202.972 65.5523 202.94 65.5683 202.94 65.6003C202.94 65.6643 202.988 65.7603 203.084 65.8883C203.724 66.6243 204.444 67.1523 205.244 67.4723C206.044 67.7923 206.876 67.9523 207.74 67.9523C208.796 67.9523 209.868 67.7603 210.956 67.3763C212.044 66.9603 213.084 66.4323 214.076 65.7923C215.068 65.1203 215.98 64.3683 216.812 63.5363C217.676 62.6723 218.38 61.8083 218.924 60.9443C219.244 60.4643 219.532 59.9683 219.788 59.4563C220.044 58.9443 220.3 58.4323 220.556 57.9203L221.468 58.1603Z" fill="black"/>
<path d="M228.235 55.1843C228.235 54.3203 228.011 53.6163 227.563 53.0723C227.147 52.4963 226.459 52.2083 225.499 52.2083C224.987 52.2083 224.523 52.3683 224.107 52.6883C223.691 53.0083 223.339 53.4403 223.051 53.9843C222.763 54.4963 222.539 55.1043 222.379 55.8083C222.219 56.5123 222.139 57.2483 222.139 58.0163C222.139 59.2323 222.267 60.3203 222.523 61.2803C222.811 62.2083 223.211 63.0243 223.723 63.7283C224.395 63.1843 225.003 62.5603 225.547 61.8563C226.091 61.1523 226.555 60.4163 226.939 59.6483C227.355 58.8803 227.675 58.1123 227.899 57.3443C228.123 56.5763 228.235 55.8563 228.235 55.1843ZM240.379 58.1603C240.155 58.6403 239.915 59.1363 239.659 59.6483C239.435 60.1283 239.147 60.6083 238.795 61.0883C237.227 63.3283 235.435 65.0243 233.419 66.1763C231.435 67.2963 229.531 67.8563 227.707 67.8563C226.683 67.8563 225.723 67.6803 224.827 67.3283C223.963 66.9763 223.211 66.4483 222.571 65.7443C221.931 65.0403 221.419 64.1603 221.035 63.1043C220.651 62.0483 220.459 60.8003 220.459 59.3603C220.459 58.4003 220.603 57.4403 220.891 56.4803C221.179 55.5203 221.563 54.6563 222.043 53.8883C222.555 53.1203 223.131 52.4963 223.771 52.0163C224.443 51.5363 225.147 51.2963 225.883 51.2963C227.067 51.2963 227.931 51.6483 228.475 52.3523C229.019 53.0243 229.291 53.8883 229.291 54.9443C229.291 56.3843 228.843 57.9523 227.947 59.6483C227.083 61.3123 225.835 62.8643 224.203 64.3043C225.419 65.6803 226.987 66.3683 228.907 66.3683C230.347 66.3683 231.851 65.9363 233.419 65.0723C234.987 64.1763 236.459 62.8003 237.835 60.9443C238.187 60.4963 238.475 60.0163 238.699 59.5043C238.955 58.9603 239.211 58.4323 239.467 57.9203L240.379 58.1603Z" fill="black"/>
</svg>
