<svg width="17" height="17" viewBox="0 0 17 17" fill="none" xmlns="http://www.w3.org/2000/svg">
<g clip-path="url(#clip0_6_221)">
<path d="M4.76689 6.9C3.9182 6.9 3.10427 6.56286 2.50415 5.96274C1.90404 5.36263 1.56689 4.54869 1.56689 3.7C1.56689 2.85131 1.90404 2.03737 2.50415 1.43726C3.10427 0.837142 3.9182 0.5 4.76689 0.5L12.2336 0.5C13.0823 0.5 13.8962 0.837142 14.4963 1.43726C15.0964 2.03737 15.4336 2.85131 15.4336 3.7C15.4336 4.54869 15.0964 5.36263 14.4963 5.96274C13.8962 6.56286 13.0823 6.9 12.2336 6.9H10.1002V4.23333C10.1002 3.52609 9.81928 2.84781 9.31918 2.34772C8.81908 1.84762 8.14081 1.56667 7.43356 1.56667C6.72632 1.56667 6.04804 1.84762 5.54794 2.34772C5.04785 2.84781 4.76689 3.52609 4.76689 4.23333V6.9Z" fill="white"/>
<path d="M7.43353 2.63333C7.00918 2.63333 6.60222 2.8019 6.30216 3.10196C6.0021 3.40202 5.83353 3.80899 5.83353 4.23333V9.08667C5.2312 9.20962 4.68985 9.5369 4.3011 10.0131C3.91235 10.4893 3.70007 11.0853 3.7002 11.7C3.7002 12.973 4.20591 14.1939 5.10608 15.0941C6.00626 15.9943 7.22716 16.5 8.5002 16.5H9.03353C10.448 16.5 11.8046 15.9381 12.8048 14.9379C13.805 13.9377 14.3669 12.5812 14.3669 11.1667V10.2568C14.3669 9.64942 14.1256 9.06692 13.6961 8.63743C13.2666 8.20795 12.6841 7.96667 12.0767 7.96667H9.03353V4.23333C9.03353 3.80899 8.86496 3.40202 8.5649 3.10196C8.26484 2.8019 7.85788 2.63333 7.43353 2.63333Z" fill="white"/>
</g>
<defs>
<clipPath id="clip0_6_221">
<rect width="16" height="16" fill="white" transform="translate(0.5 0.5)"/>
</clipPath>
</defs>
</svg>
