<svg width="44" height="38" viewBox="0 0 44 38" fill="none" xmlns="http://www.w3.org/2000/svg">
<g filter="url(#filter0_d_60_614)">
<path fill-rule="evenodd" clip-rule="evenodd" d="M39.1075 25.2974C38.2915 23.6541 37.2163 22.1529 35.923 20.8514C35.4905 20.3626 35.0376 19.8922 34.5655 19.4414L34.5085 19.3859C34.3332 19.2157 34.1602 19.0432 33.9895 18.8684C35.7574 16.4101 37.2702 13.778 38.5045 11.0129L38.554 10.9019L38.5885 10.7849C38.752 10.2404 38.938 9.20545 38.278 8.26945C37.594 7.30345 36.5005 7.12945 35.767 7.12945H32.3965C31.6908 7.09729 30.9929 7.2892 30.4029 7.67771C29.8128 8.06623 29.3608 8.63143 29.1115 9.29245C28.3861 11.0199 27.478 12.6648 26.4025 14.1989V10.2494C26.4025 9.73945 26.3545 8.88445 25.807 8.16445C25.153 7.30045 24.2065 7.12945 23.5495 7.12945H18.2005C17.5025 7.11339 16.8251 7.36639 16.3085 7.83606C15.7919 8.30573 15.4758 8.95609 15.4255 9.65245L15.421 9.71995V9.78745C15.421 10.5149 15.709 11.0519 15.94 11.3894C16.0435 11.5409 16.153 11.6789 16.2235 11.7659L16.2385 11.7854C16.3135 11.8784 16.363 11.9399 16.4125 12.0089C16.5445 12.1859 16.732 12.4619 16.786 13.1729V15.3824C15.7123 13.5844 14.8319 11.6778 14.1595 9.69445L14.1475 9.66145L14.1355 9.62995C13.9525 9.15145 13.66 8.45545 13.0735 7.92445C12.3895 7.30195 11.5795 7.12945 10.843 7.12945H7.423C6.6775 7.12945 5.779 7.30345 5.1085 8.00995C4.45 8.70595 4.375 9.53995 4.375 9.98095V10.1819L4.417 10.3769C5.36395 14.7731 7.31535 18.8905 10.1185 22.4069C11.4001 24.4279 13.1399 26.1184 15.197 27.3412C17.254 28.564 19.5703 29.2847 21.958 29.4449L22.0195 29.4494H22.0825C23.1715 29.4494 24.307 29.3549 25.1605 28.7864C26.311 28.0184 26.4025 26.841 26.4025 26.2529V24.5459C26.698 24.7859 27.064 25.1069 27.5125 25.5389C28.0555 26.0819 28.4875 26.5529 28.858 26.9639L29.056 27.1829C29.344 27.5039 29.6275 27.8204 29.8855 28.0799C30.2095 28.4054 30.61 28.7639 31.111 29.0294C31.6555 29.3159 32.227 29.4464 32.833 29.4464H36.2545C36.976 29.4464 38.0095 29.2754 38.737 28.4324C39.529 27.5144 39.469 26.3879 39.22 25.5794L39.175 25.4339L39.1075 25.2974ZM30.5275 25.4564C30.0626 24.9368 29.5839 24.4296 29.092 23.9354L29.0875 23.9309C27.052 21.9689 26.1025 21.6284 25.4305 21.6284C25.072 21.6284 24.6775 21.6674 24.421 21.9884C24.3055 22.1416 24.2298 22.3209 24.2005 22.5104C24.1643 22.7305 24.1483 22.9535 24.1525 23.1764V26.2529C24.1525 26.6354 24.0895 26.7959 23.9125 26.9129C23.677 27.0704 23.1745 27.1979 22.096 27.1979C20.0473 27.0585 18.061 26.4349 16.3003 25.3783C14.5396 24.3216 13.0548 22.8622 11.968 21.1199L11.956 21.1004L11.941 21.0824C9.32967 17.8322 7.50977 14.0193 6.625 9.94495C6.631 9.74995 6.673 9.63145 6.742 9.55945C6.8125 9.48445 6.985 9.37945 7.423 9.37945H10.843C11.2225 9.37945 11.4205 9.46345 11.563 9.59095C11.722 9.73795 11.863 9.98545 12.031 10.4264C12.871 12.8954 14.005 15.2054 15.0805 16.9019C15.6175 17.7509 16.1455 18.4574 16.6225 18.9569C16.861 19.2059 17.0935 19.4129 17.317 19.5599C17.5315 19.7009 17.776 19.8134 18.028 19.8134C18.16 19.8134 18.3145 19.7984 18.463 19.7339C18.6234 19.6631 18.7554 19.5406 18.838 19.3859C18.9925 19.1039 19.036 18.6884 19.036 18.1439V13.0844C18.9565 11.8574 18.586 11.1659 18.226 10.6754C18.1531 10.5773 18.0781 10.4808 18.001 10.3859L17.9815 10.3619C17.9175 10.2843 17.8565 10.2042 17.7985 10.1219C17.7247 10.0302 17.6802 9.91834 17.671 9.80095C17.6828 9.68175 17.7396 9.57156 17.83 9.49293C17.9203 9.41429 18.0373 9.37316 18.157 9.37795H23.5495C23.8585 9.37795 23.962 9.45295 24.0145 9.52345C24.0895 9.62095 24.1525 9.82345 24.1525 10.2494V17.0414C24.1525 17.8484 24.5245 18.3944 25.0645 18.3944C25.6855 18.3944 26.134 18.0179 26.917 17.2349L26.9305 17.2199L26.9425 17.2064C28.699 15.0649 30.134 12.6788 31.2025 10.1234L31.2085 10.1054C31.2888 9.87968 31.4407 9.68637 31.6411 9.55502C31.8416 9.42366 32.0794 9.36148 32.3185 9.37795H35.7685C36.2365 9.37795 36.3895 9.49795 36.4405 9.56845C36.493 9.64345 36.5305 9.80395 36.4405 10.1189C35.2084 12.8735 33.6852 15.4883 31.897 17.9189L31.885 17.9369C31.7125 18.2024 31.522 18.4964 31.495 18.8324C31.465 19.1954 31.621 19.5239 31.8955 19.8779C32.095 20.1719 32.5075 20.5754 32.926 20.9849L32.965 21.0239C33.403 21.4529 33.8785 21.9179 34.2595 22.3679L34.27 22.3784L34.2805 22.3904C35.4166 23.5237 36.3614 24.8337 37.078 26.2694C37.192 26.6594 37.123 26.8604 37.033 26.9639C36.9295 27.0839 36.697 27.1964 36.256 27.1964H32.833C32.5997 27.2021 32.3689 27.1479 32.1625 27.0389C31.9096 26.8918 31.6801 26.7078 31.4815 26.4929C31.267 26.2784 31.0345 26.0189 30.7495 25.7024L30.529 25.4564H30.5275Z" fill="#FFF9F4"/>
</g>
<defs>
<filter id="filter0_d_60_614" x="0" y="0" width="44" height="44" filterUnits="userSpaceOnUse" color-interpolation-filters="sRGB">
<feFlood flood-opacity="0" result="BackgroundImageFix"/>
<feColorMatrix in="SourceAlpha" type="matrix" values="0 0 0 0 0 0 0 0 0 0 0 0 0 0 0 0 0 0 127 0" result="hardAlpha"/>
<feOffset dy="4"/>
<feGaussianBlur stdDeviation="2"/>
<feComposite in2="hardAlpha" operator="out"/>
<feColorMatrix type="matrix" values="0 0 0 0 0 0 0 0 0 0 0 0 0 0 0 0 0 0 0.25 0"/>
<feBlend mode="normal" in2="BackgroundImageFix" result="effect1_dropShadow_60_614"/>
<feBlend mode="normal" in="SourceGraphic" in2="effect1_dropShadow_60_614" result="shape"/>
</filter>
</defs>
</svg>
